<?xml version="1.0" standalone="no"?><!DOCTYPE svg PUBLIC "-//W3C//DTD SVG 1.1//EN" "http://www.w3.org/Graphics/SVG/1.1/DTD/svg11.dtd"><svg t="1755888518478" class="icon" viewBox="0 0 1024 1024" version="1.1" xmlns="http://www.w3.org/2000/svg" p-id="1679" xmlns:xlink="http://www.w3.org/1999/xlink" width="200" height="200"><path d="M511.3 512.3m-445 0a445 445 0 1 0 890 0 445 445 0 1 0-890 0Z" fill="#2EAEB7" p-id="1680"></path><path d="M895.8 736.5c-19.2-18.6-56.7-55.1-130.3-126.5l-64.4 20.8-128.9-145.9v20.8L314.5 255.5s-18.3-19.9 0 145.9l279.2 271 21.5 62.5 148.3 144c53.9-37 99.2-85.7 132.3-142.4z" fill="#1594A3" p-id="1681"></path><path d="M595.5 512.3C681 533.6 788 597.4 788 703.8c0 21.3 0 21.3 0 0 0 0-21.4 0-21.4-21.3-21.4-21.3-21.4-21.3 0 21.3 0 21.3 21.4 42.6 21.4 42.6v21.3c-21.4-21.3-42.8-21.3-64.1-42.6-21.4-21.3-21.4-21.3 0 0 0 0 0 21.3 21.4 21.3h-21.4c-21.4-21.3-21.4-21.3 0 0 0 0 0 21.3 21.4 21.3-107 21.2-192.5-63.9-235.3-191.5h21.4c21.4-21.3 21.4-42.6 42.8-63.8-0.1-0.1-0.1-0.1 21.3-0.1zM510 469.8c0-21.3 21.4-21.3 42.8 0l21.4 21.3v21.3l-64.1 63.8c-21.4-21.3-21.4-21.3-42.8-21.3 0-21.3-21.4-42.6 0-42.6V491h21.4c-0.1-21.2-0.1-21.2 21.3-21.2zM296.2 235.7c-3.9-3.8 126.2 121.7 192.4 234.1 0 21.3 0 21.3-21.4 21.3-85.5-106.4-128.3 0-235.2-212.8-21.3-21.3 64.2-42.6 64.2-42.6z" fill="#105177" p-id="1682"></path></svg>